<svg viewBox="0 0 100 100" xmlns="http://www.w3.org/2000/svg" style="display:none">
  <defs><style>.cls-1{fill:#777677;}</style></defs>
  <symbol viewBox="0 0 41 41" id="icon-sabarca-arrow-back">
    <title>arrow-back</title>
    <g fill="none" fill-rule="evenodd" transform="translate(3 4)">
      <path fill="#7C2529" d="M18.8728,24.8166 L13.2318,18.0486 C12.9228,17.6776 12.9228,17.1386 13.2318,16.7676 L18.8728,10.0006 L20.4088,11.2796 L15.3028,17.4086 L20.4088,23.5376 L18.8728,24.8166 Z"/>
    </g>
  </symbol>
  <symbol viewBox="0 0 41 41" id="icon-sabarca-arrow-left">
    <title>arrow-left</title>
    <g fill="none" fill-rule="evenodd" transform="translate(3 4)">
      <path fill="#7C2529" d="M18.8728,24.8166 L13.2318,18.0486 C12.9228,17.6776 12.9228,17.1386 13.2318,16.7676 L18.8728,10.0006 L20.4088,11.2796 L15.3028,17.4086 L20.4088,23.5376 L18.8728,24.8166 Z"/>
      <circle cx="17" cy="17" r="17" stroke="#7C2529" stroke-width="2"/>
    </g>
  </symbol>
  <symbol viewBox="0 0 41 41" id="icon-sabarca-arrow-right">
    <title>arrow-right</title>
    <g fill="none" fill-rule="evenodd">
      <path fill="#7C2529" d="M23.548743,29 L18.2189641,22.1479482 C17.927012,21.7723407 17.927012,21.2266469 18.2189641,20.8510394 L23.548743,14 L25,15.2948839 L20.1757044,21.5 L25,27.7051161 L23.548743,29 Z" transform="rotate(-180 21.5 21.5)"/>
      <circle cx="21" cy="21" r="17" stroke="#7C2529" stroke-width="2"/>
    </g>
  </symbol>
  <symbol viewBox="0 0 73 80" id="icon-sabarca-bulb">
    <title>bulb</title>
    <g fill="#7C2529" fill-rule="evenodd">
      <path d="M52.8426735,44.0430365 C52.4237474,44.8091465 50.0790556,49.2243828 48.4407133,54.8623861 L48.4407133,54.8172514 L38.1502526,54.8172514 L38.1502526,45.3964877 L42.7840342,40.7502679 L40.4958269,38.4557729 L36.5322094,42.429987 L32.6086016,38.4958926 L30.3203943,40.7903877 L34.9141661,45.3964877 L34.9141661,54.8172514 L24.7584443,54.8172514 L24.7584443,54.8617962 C23.1106879,49.191638 20.7474622,44.7563419 20.3491294,44.0285816 C19.4233145,41.8426458 18.9529052,39.5195359 18.9529052,37.1220865 C18.9529052,27.36473 26.8692552,19.4266266 36.5995788,19.4266266 C46.3301966,19.4266266 54.2465466,27.36473 54.2465466,37.1220865 C54.2465466,39.509506 53.7643697,41.8662457 52.8426735,44.0430365 M44.9104372,70.0503624 L28.2887204,70.0503624 C27.2343446,70.0503624 26.3764875,69.190148 26.3764875,68.1328748 L26.3764875,64.875506 L46.8226701,64.875506 L46.8226701,68.1328748 C46.8226701,69.190148 45.964813,70.0503624 44.9104372,70.0503624 M41.4272314,76.4302859 L31.2064936,76.4302859 C30.9070085,76.4302859 30.6537112,76.1762925 30.6537112,75.8759845 L30.6537112,73.2953412 L41.9800138,73.2953412 L41.9800138,75.8759845 C41.9800138,76.1762925 41.7270107,76.4302859 41.4272314,76.4302859 M25.5704078,58.0622303 L47.629044,58.0622303 C47.3783944,59.2286527 47.1742268,60.423985 47.0330157,61.6305271 L26.1661419,61.6305271 C26.025225,60.423985 25.8207632,59.2286527 25.5704078,58.0622303 M17.4725427,45.5177319 C17.5275562,45.6168513 22.9877166,55.5222969 23.1404011,64.717682 L23.1404011,68.1328748 C23.1404011,70.6810683 24.9932077,72.7985645 27.4176248,73.2153968 L27.4176248,75.8759845 C27.4176248,77.9707658 29.1174527,79.6752648 31.2064936,79.6752648 L41.4272314,79.6752648 C43.5165665,79.6752648 45.2161003,77.9707658 45.2161003,75.8759845 L45.2161003,73.2797064 C47.9123487,73.1198174 50.0587565,70.875767 50.0587565,68.1328748 L50.0587565,64.717682 C50.1702544,58.0303705 53.0865567,50.9719515 54.6913614,47.5785885 L54.6951859,47.5806535 C56.5188677,44.4144391 57.4826331,40.7977626 57.4826331,37.1220865 C57.4826331,25.5752716 48.1147512,16.1816477 36.5995788,16.1816477 C25.0847006,16.1816477 15.7168187,25.5752716 15.7168187,37.1220865 C15.7168187,39.9823879 16.2822513,42.7559599 17.3975244,45.3649229"/>
      <polygon points="0 39.677 6.472 39.677 6.472 36.432 0 36.432"/>
      <polygon points="8.645 12.866 13.389 17.623 15.677 15.328 10.933 10.572"/>
      <polygon points="33.832 6.932 37.068 6.932 37.068 0 33.832 0"/>
      <polygon points="55.826 13.868 58.114 16.163 62.858 11.406 60.57 9.111"/>
      <polygon points="66.487 37.612 72.959 37.612 72.959 34.367 66.487 34.367"/>
    </g>
  </symbol>
  <symbol viewBox="0 0 36 44" id="icon-sabarca-user-group">
    <g fill="none" fill-rule="evenodd">
      <path fill="#FFCD00" d="M35.6481656,15.0982985 C34.9676393,10.8761843 32.8384288,7.04786998 29.6525866,4.31845569 C26.4607445,1.58416998 22.3300603,0.0586271195 18.0212709,0.0226414052 L18.006113,0.0226414052 C17.8636919,0.0226414052 17.7207972,0.0172985481 17.5777445,0.0124271195 C17.1626393,-0.00187288049 16.692113,-0.0180585948 16.180534,0.0528128338 C15.2980603,0.17522712 14.2524814,0.337869977 13.1873235,0.614755691 C8.31516559,1.88164141 4.20753401,5.21369855 1.91758665,9.75716998 C-0.408834407,14.3722985 -0.628781776,19.7536557 1.31427086,24.5215271 C4.00779717,31.1314271 8.64090243,37.0285271 15.8945866,43.08057 C16.5078498,43.5919128 17.2134814,43.84727 17.9236919,43.84727 C18.6530077,43.84727 19.3869024,43.5780843 20.0300077,43.0404985 C25.8618498,38.1648271 30.121534,33.17067 33.0520603,27.7723414 C35.4923235,23.27727 36.3173235,19.2500128 35.6481656,15.0982985"/>
      <path fill="#000" d="M9.2111104,24.1428971 L26.8658127,24.1428971 L26.8658127,22.884419 L9.2111104,22.884419 L9.2111104,24.1428971 Z M11.1610846,21.5973203 L24.9158384,21.5973203 L24.9158384,20.3388423 L11.1610846,20.3388423 L11.1610846,21.5973203 Z M13.19402,19.1739638 L15.6162407,19.1739638 L15.6162407,15.3724882 L13.19402,15.3724882 L13.19402,19.1739638 Z M10.5122755,13.0048755 L18.0384615,9.30798184 L25.5646476,13.0048755 L25.5646476,14.207693 L10.5122755,14.207693 L10.5122755,13.0048755 Z M16.8273511,19.174047 L19.2495719,19.174047 L19.2495719,15.3725714 L16.8273511,15.3725714 L16.8273511,19.174047 Z M20.4606823,19.174047 L22.8829031,19.174047 L22.8829031,15.3725714 L20.4606823,15.3725714 L20.4606823,19.174047 Z M26.1269488,21.7196238 L26.1269488,19.174047 L24.0940135,19.174047 L24.0940135,15.3724882 L26.775758,15.3724882 L26.775758,12.2918544 L18.0384615,8 L9.30116511,12.2918544 L9.30116511,15.3724882 L11.9829096,15.3724882 L11.9829096,19.174047 L9.94997425,19.174047 L9.94997425,21.7196238 L8,21.7196238 L8,25.3076923 L28.0769231,25.3076923 L28.0769231,21.7196238 L26.1269488,21.7196238 Z"/>
    </g>
  </symbol>
  <symbol viewBox="0 0 48 68" id="icon-sabarca-location">
    <title>location</title>
    <g fill="#7C2529" fill-rule="evenodd"><path d="M36.8 59.118l-1.14.01-11.685 5.235-11.683-5.235-1.142-.01-7.042 3.01 5.838-13.06 5.113-2.598c4.09 6.15 7.745 10.878 7.787 10.932h2.256c.043-.054 3.698-4.783 7.79-10.932l5.113 2.6 5.837 13.06-7.042-3.012zM6.188 21.038c0-9.868 7.98-17.897 17.788-17.897 9.81 0 17.788 8.03 17.788 17.9 0 4.087-3.24 11.33-9.37 20.947-3.342 5.242-6.718 9.876-8.418 12.153-1.697-2.274-5.065-6.898-8.405-12.135C9.432 32.38 6.187 25.13 6.187 21.04zm34.22 26.385l-.66-.695-5.272-2.68c.105-.162.21-.324.314-.488 6.525-10.235 9.835-17.812 9.835-22.52C44.625 9.58 35.36.26 23.975.26S3.325 9.582 3.325 21.04c0 4.708 3.31 12.285 9.837 22.52l.313.49-5.272 2.678-.66.695L0 64.3l1.864 1.917 9.832-4.205 11.697 5.242h1.164l11.698-5.242 9.83 4.205 1.866-1.916-7.543-16.877z"/><path d="M20.54 17.582c.947-.953 2.19-1.43 3.436-1.43 1.244 0 2.488.477 3.435 1.43 1.895 1.906 1.895 5.008 0 6.914-1.893 1.906-4.976 1.906-6.87 0-1.894-1.906-1.894-5.008 0-6.914m3.435 11.22c1.978 0 3.954-.756 5.46-2.27 3.01-3.03 3.01-7.957 0-10.986-3.01-3.028-7.908-3.03-10.918 0-3.01 3.03-3.01 7.957 0 10.986 1.505 1.514 3.48 2.27 5.458 2.27"/></g>
  </symbol>
  <symbol viewBox="0 0 66 65" id="icon-sabarca-loupe">
    <g fill="#7C2529" fill-rule="evenodd">
      <path d="M57.2324383,36.6503787 C53.4617329,40.3767228 48.4480011,42.4291486 43.1153969,42.4291486 C37.7825309,42.4291486 32.7690609,40.3767228 28.9980937,36.6503787 C21.2145179,28.9581156 21.2145179,16.441242 28.9980937,8.74872029 C36.7827167,1.05671597 49.4480771,1.05619853 57.2324383,8.74872029 C65.0160141,16.441242 65.0160141,28.9581156 57.2324383,36.6503787 L57.2324383,36.6503787 Z M21.2574531,48.3297756 L16.3688617,43.4986971 L19.2167221,40.6843409 L24.1053135,45.5151608 L21.2574531,48.3297756 Z M4.22474514,55.4999417 L14.3325813,45.5110212 L19.2211727,50.3418411 L9.11333654,60.3307616 L4.22474514,55.4999417 Z M59.2684569,6.73639613 C50.3622827,-2.06525827 35.8692965,-2.06577571 26.9620751,6.73639613 C18.5352567,15.0640755 18.0862697,28.3299435 25.6046421,37.1900686 L22.6792889,40.0812646 L19.2167221,36.6596926 L0.15244614,55.4999417 L9.11333654,64.3554099 L28.1778743,45.5151608 L24.7155693,42.0935888 L27.5893479,39.2533606 C31.8255337,43.1403699 37.3034369,45.2750686 43.1153969,45.2750686 C49.2171695,45.2750686 54.9539929,42.9266672 59.2684569,38.6627028 C68.1754165,29.8607897 68.1754165,15.538568 59.2684569,6.73639613 L59.2684569,6.73639613 Z"/>
      <polygon points="44.555 16.891 41.675 16.891 41.675 21.419 37.094 21.419 37.094 24.265 41.675 24.265 41.675 28.792 44.555 28.792 44.555 24.265 49.137 24.265 49.137 21.419 44.555 21.419"/>
    </g>
  </symbol>
  <symbol viewBox="0 0 82 76" id="icon-sabarca-process">
    <title>process</title>
    <g stroke="#7E272B" stroke-width="3" fill="none" fill-rule="evenodd">
      <path d="M30 17c0-6.075 4.925-11 11-11s11 4.925 11 11-4.925 11-11 11-11-4.925-11-11zM6 60c0-6.075 4.925-11 11-11s11 4.925 11 11-4.925 11-11 11S6
        66.075 6 60zM54 60c0-6.075 4.925-11 11-11s11 4.925 11 11-4.925 11-11 11-11-4.925-11-11zM22 50l13-23M59 50L46 27M28 59h25"/>
      </g>
  </symbol>
  <symbol viewBox="0 0 36 44" id="icon-sabarca-process-map">
    <title>process-map</title>
    <g fill="none" fill-rule="evenodd">
      <path fill="#FFCD00" d="M35.6481656,15.0982985 C34.9676393,10.8761843 32.8384288,7.04786998 29.6525866,4.31845569 C26.4607445,1.58416998 22.3300603,0.0586271195 18.0212709,0.0226414052 L18.006113,0.0226414052 C17.8636919,0.0226414052 17.7207972,0.0172985481 17.5777445,0.0124271195 C17.1626393,-0.00187288049 16.692113,-0.0180585948 16.180534,0.0528128338 C15.2980603,0.17522712 14.2524814,0.337869977 13.1873235,0.614755691 C8.31516559,1.88164141 4.20753401,5.21369855 1.91758665,9.75716998 C-0.408834407,14.3722985 -0.628781776,19.7536557 1.31427086,24.5215271 C4.00779717,31.1314271 8.64090243,37.0285271 15.8945866,43.08057 C16.5078498,43.5919128 17.2134814,43.84727 17.9236919,43.84727 C18.6530077,43.84727 19.3869024,43.5780843 20.0300077,43.0404985 C25.8618498,38.1648271 30.121534,33.17067 33.0520603,27.7723414 C35.4923235,23.27727 36.3173235,19.2500128 35.6481656,15.0982985"/>
      <path fill="#000" d="M24.5161716,23.8012558 C25.8016497,23.8012558 26.8474728,22.7815527 26.8474728,21.52818 C26.8474728,20.2748073 25.8016497,19.2551042 24.5161716,19.2551042 C23.2306935,19.2551042 22.1848704,20.2748073 22.1848704,21.52818 C22.1848704,22.7815527 23.2306935,23.8012558 24.5161716,23.8012558 Z M21.0112723,20.9199886 C21.1588942,20.1093806 21.595349,19.3953572 22.2136747,18.8829797 L19.1747371,13.7508991 C18.8086243,13.8751403 18.4159028,13.94364 18.0068471,13.94364 C17.5978792,13.94364 17.2051577,13.8751403 16.8389572,13.7508991 L13.821008,18.8475312 C14.4619029,19.3622205 14.9146918,20.0908001 15.0656508,20.9199886 L21.0112723,20.9199886 Z M11.5607515,23.8012558 C12.8461417,23.8012558 13.8920527,22.7815527 13.8920527,21.52818 C13.8920527,20.2748073 12.8461417,19.2551042 11.5607515,19.2551042 C10.2752734,19.2551042 9.22945028,20.2748073 9.22945028,21.52818 C9.22945028,22.7815527 10.2752734,23.8012558 11.5607515,23.8012558 Z M18.0068471,8.19874417 C16.721369,8.19874417 15.6755459,9.21844734 15.6755459,10.47182 C15.6755459,11.7251927 16.721369,12.7448958 18.0068471,12.7448958 C19.292413,12.7448958 20.3382361,11.7251927 20.3382361,10.47182 C20.3382361,9.21844734 19.292413,8.19874417 18.0068471,8.19874417 Z M24.5161716,18.05636 C26.4795159,18.05636 28.0769231,19.6138712 28.0769231,21.52818 C28.0769231,23.4425744 26.4795159,25 24.5161716,25 C22.7592872,25 21.2965048,23.7526211 21.0080231,22.1187328 L15.0689,22.1187328 C14.7804183,23.7526211 13.3175481,25 11.5607515,25 C9.59731937,25 8,23.4425744 8,21.52818 C8,19.6138712 9.59731937,18.05636 11.5607515,18.05636 C11.9781498,18.05636 12.378775,18.1273428 12.7512106,18.2566359 L15.7652958,13.1667681 C14.9610597,12.5296356 14.4460956,11.5584816 14.4460956,10.47182 C14.4460956,8.55751118 16.0435028,7 18.0068471,7 C19.9702792,7 21.5676864,8.55751118 21.5676864,10.47182 C21.5676864,11.5584816 21.0527224,12.5296356 20.2485741,13.1667681 L23.273373,18.2750452 C23.660562,18.1339359 24.079102,18.05636 24.5161716,18.05636 Z"/>
    </g>
  </symbol>
  <symbol viewBox="0 0 36 44" id="icon-sabarca-mayor-neighborhoods">
    <g fill="none" fill-rule="evenodd">
      <path fill="#FFCD00" d="M35.6481656,15.0982985 C34.9676393,10.8761843 32.8384288,7.04786998 29.6525866,4.31845569 C26.4607445,1.58416998 22.3300603,0.0586271195 18.0212709,0.0226414052 L18.006113,0.0226414052 C17.8636919,0.0226414052 17.7207972,0.0172985481 17.5777445,0.0124271195 C17.1626393,-0.00187288049 16.692113,-0.0180585948 16.180534,0.0528128338 C15.2980603,0.17522712 14.2524814,0.337869977 13.1873235,0.614755691 C8.31516559,1.88164141 4.20753401,5.21369855 1.91758665,9.75716998 C-0.408834407,14.3722985 -0.628781776,19.7536557 1.31427086,24.5215271 C4.00779717,31.1314271 8.64090243,37.0285271 15.8945866,43.08057 C16.5078498,43.5919128 17.2134814,43.84727 17.9236919,43.84727 C18.6530077,43.84727 19.3869024,43.5780843 20.0300077,43.0404985 C25.8618498,38.1648271 30.121534,33.17067 33.0520603,27.7723414 C35.4923235,23.27727 36.3173235,19.2500128 35.6481656,15.0982985"/>
      <path fill="#000" d="M11.2121052,15.1787992 L11.2121052,10.7759265 L24.7271652,10.7759265 L26.9782177,12.9773628 L24.7271652,15.1787992 L11.2121052,15.1787992 Z M28.6923077,12.9773628 L25.2291499,9.59053774 L18.6578945,9.59053774 L18.6578945,8 L17.4457893,8 L17.4457893,9.59053774 L10,9.59053774 L10,16.3641879 L17.4457893,16.3641879 L17.4457893,25.3076923 L18.6578945,25.3076923 L18.6578945,16.3641879 L25.2291499,16.3641879 L28.6923077,12.9773628 Z"/>
    </g>
  </symbol>
</svg>
